<svg xmlns="http://www.w3.org/2000/svg" width="1200" height="630" viewBox="0 0 1200 630" role="img" aria-label="A warm hearth-lit corner with layered hills and a window glow">
  <defs>
    <linearGradient id="sky" x1="0" y1="0" x2="0" y2="1">
      <stop offset="0" stop-color="#0a1018"/>
      <stop offset="0.55" stop-color="#121d2b"/>
      <stop offset="1" stop-color="#172638"/>
    </linearGradient>
    <radialGradient id="windowGlow" cx="0.26" cy="0.32" r="0.34">
      <stop offset="0" stop-color="#f7e8c6" stop-opacity="0.95"/>
      <stop offset="0.38" stop-color="#cfa96b" stop-opacity="0.55"/>
      <stop offset="1" stop-color="#cfa96b" stop-opacity="0"/>
    </radialGradient>
    <linearGradient id="bookCover" x1="0" y1="0" x2="1" y2="1">
      <stop offset="0" stop-color="#1b2a3d"/>
      <stop offset="1" stop-color="#0f1825"/>
    </linearGradient>
    <filter id="blur" x="-20%" y="-20%" width="140%" height="140%">
      <feGaussianBlur stdDeviation="10"/>
    </filter>
  </defs>

  <rect width="1200" height="630" fill="url(#sky)"/>

  <g fill="#e8e2d5" opacity="0.45">
    <circle cx="110" cy="76" r="1.6"/>
    <circle cx="170" cy="104" r="1.3"/>
    <circle cx="248" cy="82" r="1.2"/>
    <circle cx="346" cy="90" r="1.4"/>
    <circle cx="424" cy="72" r="1.5"/>
    <circle cx="536" cy="108" r="1.2"/>
    <circle cx="614" cy="86" r="1.4"/>
    <circle cx="716" cy="96" r="1.2"/>
    <circle cx="808" cy="74" r="1.5"/>
    <circle cx="892" cy="98" r="1.3"/>
    <circle cx="1010" cy="80" r="1.4"/>
  </g>

  <circle cx="315" cy="215" r="260" fill="url(#windowGlow)" filter="url(#blur)"/>

  <g>
    <path d="M0 408 C170 332 355 338 522 408 C625 453 717 463 816 426 C971 370 1085 382 1200 434 L1200 630 L0 630 Z" fill="#1a2c3d"/>
    <path d="M0 456 C156 387 322 394 471 456 C608 513 784 515 934 458 C1043 417 1127 421 1200 452 L1200 630 L0 630 Z" fill="#132130"/>
    <path d="M0 515 C163 465 328 470 476 516 C640 566 861 560 1018 503 C1099 474 1159 477 1200 497 L1200 630 L0 630 Z" fill="#0e1824"/>
  </g>

  <g transform="translate(100,350)">
    <ellipse cx="102" cy="124" rx="130" ry="60" fill="#0b121c" opacity="0.7"/>
    <rect x="38" y="14" width="128" height="156" rx="60" fill="#121f2e" stroke="#7c9f8c" stroke-opacity="0.45"/>
    <rect x="54" y="34" width="96" height="72" rx="42" fill="#121f2e"/>
    <rect x="72" y="54" width="60" height="36" rx="18" fill="#f4ddb0" fill-opacity="0.72"/>
    <circle cx="102" cy="32" r="13" fill="#121f2e" stroke="#7c9f8c" stroke-opacity="0.45"/>
  </g>

  <g transform="translate(705,322) rotate(-7)">
    <rect x="0" y="0" width="350" height="218" rx="16" fill="#c9a86a" opacity="0.16"/>
    <rect x="14" y="14" width="322" height="190" rx="14" fill="url(#bookCover)" stroke="#c9a86a" stroke-opacity="0.34"/>
    <path d="M168 20 L168 202" stroke="#d8c8a6" stroke-opacity="0.2"/>
    <path d="M48 58 H288" stroke="#e8dfcf" stroke-opacity="0.27" stroke-width="6" stroke-linecap="round"/>
    <path d="M48 94 H262" stroke="#e8dfcf" stroke-opacity="0.22" stroke-width="6" stroke-linecap="round"/>
    <path d="M48 130 H280" stroke="#e8dfcf" stroke-opacity="0.2" stroke-width="6" stroke-linecap="round"/>
    <path d="M48 166 H246" stroke="#e8dfcf" stroke-opacity="0.18" stroke-width="6" stroke-linecap="round"/>
  </g>
</svg>
