<svg xmlns="http://www.w3.org/2000/svg" width="1200" height="630" viewBox="0 0 1200 630" role="img" aria-label="A lantern-lit shelf scene with layered scenery and textured wood">
  <defs>
    <linearGradient id="bg" x1="0" y1="0" x2="0" y2="1">
      <stop offset="0" stop-color="#0a1018"/>
      <stop offset="0.55" stop-color="#121c2a"/>
      <stop offset="1" stop-color="#182637"/>
    </linearGradient>
    <radialGradient id="lampGlow" cx="0.67" cy="0.33" r="0.38">
      <stop offset="0" stop-color="#f4e4bf" stop-opacity="0.9"/>
      <stop offset="0.4" stop-color="#cca86b" stop-opacity="0.45"/>
      <stop offset="1" stop-color="#cca86b" stop-opacity="0"/>
    </radialGradient>
    <linearGradient id="woodTop" x1="0" y1="0" x2="1" y2="0">
      <stop offset="0" stop-color="#7b6140"/>
      <stop offset="0.5" stop-color="#9b7a51"/>
      <stop offset="1" stop-color="#72593c"/>
    </linearGradient>
    <pattern id="grain" width="28" height="12" patternUnits="userSpaceOnUse">
      <path d="M0 6 C7 2 14 10 21 6 C24 4 26 4 28 6" stroke="#c6a06a" stroke-opacity="0.12" fill="none"/>
      <path d="M0 10 C6 8 12 12 18 10 C22 8 25 8 28 10" stroke="#d4b181" stroke-opacity="0.1" fill="none"/>
    </pattern>
    <filter id="soft" x="-20%" y="-20%" width="140%" height="140%">
      <feGaussianBlur stdDeviation="10"/>
    </filter>
  </defs>

  <rect width="1200" height="630" fill="url(#bg)"/>

  <g fill="#e7e2d6" opacity="0.42">
    <circle cx="96" cy="64" r="1.5"/>
    <circle cx="180" cy="82" r="1.2"/>
    <circle cx="270" cy="58" r="1.4"/>
    <circle cx="364" cy="76" r="1.2"/>
    <circle cx="454" cy="62" r="1.4"/>
    <circle cx="548" cy="88" r="1.2"/>
    <circle cx="638" cy="68" r="1.4"/>
    <circle cx="730" cy="84" r="1.2"/>
    <circle cx="826" cy="64" r="1.5"/>
    <circle cx="916" cy="80" r="1.2"/>
    <circle cx="1008" cy="70" r="1.4"/>
  </g>

  <circle cx="812" cy="220" r="286" fill="url(#lampGlow)" filter="url(#soft)"/>

  <g>
    <path d="M0 430 C140 362 314 370 478 431 C645 492 868 492 1039 431 C1105 408 1159 408 1200 420 L1200 630 L0 630 Z" fill="#162536"/>
    <path d="M0 488 C156 436 331 442 496 492 C650 540 860 540 1014 494 C1088 472 1148 470 1200 486 L1200 630 L0 630 Z" fill="#0f1a26"/>
  </g>

  <g>
    <rect x="110" y="408" width="980" height="30" rx="10" fill="url(#woodTop)"/>
    <rect x="110" y="408" width="980" height="30" rx="10" fill="url(#grain)"/>
    <rect x="110" y="438" width="980" height="12" rx="6" fill="#5b472f" opacity="0.75"/>
    <rect x="110" y="438" width="980" height="12" rx="6" fill="url(#grain)" opacity="0.65"/>
  </g>

  <g transform="translate(170,214)">
    <rect x="0" y="4" width="64" height="192" rx="10" fill="#7ca79a" opacity="0.3"/>
    <rect x="74" y="16" width="52" height="180" rx="10" fill="#c9a86a" opacity="0.3"/>
    <rect x="136" y="-2" width="58" height="198" rx="10" fill="#e7ded0" opacity="0.16"/>
    <rect x="204" y="14" width="46" height="182" rx="10" fill="#8ab8ac" opacity="0.24"/>
    <rect x="260" y="0" width="72" height="196" rx="10" fill="#a98a5d" opacity="0.28"/>
    <rect x="342" y="22" width="54" height="174" rx="10" fill="#d8d0c2" opacity="0.14"/>
    <rect x="406" y="8" width="62" height="188" rx="10" fill="#759f91" opacity="0.24"/>
    <rect x="478" y="-4" width="70" height="200" rx="10" fill="#c1a070" opacity="0.24"/>
    <rect x="558" y="18" width="50" height="178" rx="10" fill="#6d917f" opacity="0.22"/>
    <rect x="618" y="2" width="66" height="194" rx="10" fill="#b19162" opacity="0.24"/>
  </g>

  <g transform="translate(930,258)">
    <rect x="-20" y="-52" width="40" height="98" rx="12" fill="#12202f" stroke="#8db4a0" stroke-opacity="0.34"/>
    <circle cx="0" cy="-64" r="10" fill="#12202f" stroke="#8db4a0" stroke-opacity="0.34"/>
    <circle cx="0" cy="-8" r="54" fill="#f0d9ab" opacity="0.16" filter="url(#soft)"/>
  </g>
</svg>
